<svg width="168" height="133" viewBox="0 0 168 133" fill="none" xmlns="http://www.w3.org/2000/svg">
<path d="M17.934 28.8851L2.87231 119H59.4678L81.1841 74.5723L75.5884 40.688L71.6268 17.9312L21.987 26.2562L21.5854 28.8851H17.934Z" fill="#7A11C6"/>
<path d="M110.916 44.2115V43.4615H110.166H102.804C103.522 40.1228 103.634 36.7233 103.206 33.5322C102.275 26.5891 98.5909 19.5971 92.0926 15.0298H164.095V43.4615H141.175H140.425V44.2115V117.766H110.916V44.2115Z" fill="#FFDE00" stroke="#7A11C0" stroke-width="1.5"/>
<path fill-rule="evenodd" clip-rule="evenodd" d="M63.4386 84.8964C40.6543 89.205 25.6474 98.6619 20.5812 118.516H69.4815C108.076 118.516 112.43 70.2363 82.4529 59.401C106.962 52.7009 104.343 14.2798 74.5843 14.2798H20.8459C17.158 38.0408 13.4246 61.8018 9.74585 85.6084C13.4337 67.3518 22.6715 46.0828 30.0837 36.133C32.8861 32.3538 37.2312 33.9969 34.9217 38.0408C31.7725 43.4995 27.8564 50.7839 26.0399 57.4019C30.7957 46.3019 37.0943 36.9728 44.5156 29.378C48.1121 25.7358 53.5344 27.9996 50.0656 32.9289C44.0227 41.4091 36.8296 52.0254 33.6346 60.5968C40.4717 48.2919 49.1345 36.4342 58.5093 27.6436C63.5755 22.8878 68.8608 26.9316 65.2642 31.2858C56.6471 41.6373 48.9246 52.5183 42.2609 65.2158C48.0756 56.3339 54.7849 46.5666 61.5399 40.478C65.9854 36.4798 71.7545 39.2366 66.4692 46.0281C60.6088 53.6228 55.7617 60.8616 51.8548 67.6987C49.3719 72.0529 50.1204 75.2478 55.5882 75.0287C58.2537 74.8918 60.7366 74.6271 62.9639 74.6727C71.1338 74.8096 71.7088 83.2898 63.4568 84.8873L63.4386 84.8964Z" fill="#FFDE00"/>
<path d="M20.0975 118.516H68.9979C107.592 118.516 111.947 70.2363 81.9692 59.401C106.479 52.7008 103.859 14.2798 74.1006 14.2798H20.3622C16.6744 38.0408 12.9409 61.8018 9.26221 85.6084" stroke="#7A11C6" stroke-width="1.5"/>
</svg>
