<svg width="178" height="116" viewBox="0 0 178 116" fill="none" xmlns="http://www.w3.org/2000/svg">
<path d="M16.5 17L0 115.72H62L85.79 67.05L79.66 29.93L75.32 5L20.94 14.12L20.5 17H16.5Z" fill="#7A11C6"/>
<path d="M118.29 33.79V33.04H117.54H109.385C110.187 29.3628 110.316 25.6157 109.843 22.1004C108.818 14.4457 104.729 6.7376 97.5121 1.75H176.69V33.04H151.51H150.76V33.79V114.44H118.29V33.79Z" fill="#FFDE00" stroke="#7A11C0" stroke-width="1.5"/>
<path fill-rule="evenodd" clip-rule="evenodd" d="M66.35 78.36C41.39 83.08 24.95 93.44 19.4 115.19H72.97C115.25 115.19 120.02 62.3 87.18 50.43C114.03 43.09 111.16 1 78.56 1H19.69C15.65 27.03 11.56 53.06 7.53003 79.14C11.57 59.14 21.69 35.84 29.81 24.94C32.88 20.8 37.64 22.6 35.11 27.03C31.66 33.01 27.37 40.99 25.38 48.24C30.59 36.08 37.49 25.86 45.62 17.54C49.56 13.55 55.5 16.03 51.7 21.43C45.08 30.72 37.2 42.35 33.7 51.74C41.19 38.26 50.68 25.27 60.95 15.64C66.5 10.43 72.29 14.86 68.35 19.63C58.91 30.97 50.45 42.89 43.15 56.8C49.52 47.07 56.87 36.37 64.27 29.7C69.14 25.32 75.46 28.34 69.67 35.78C63.25 44.1 57.94 52.03 53.66 59.52C50.94 64.29 51.76 67.79 57.75 67.55C60.67 67.4 63.39 67.11 65.83 67.16C74.78 67.31 75.41 76.6 66.37 78.35L66.35 78.36Z" fill="#FFDE00"/>
<path d="M18.87 115.19H72.44C114.72 115.19 119.49 62.3 86.65 50.43C113.5 43.09 110.63 1 78.03 1H19.16C15.12 27.03 11.03 53.06 7 79.14" stroke="#7A11C6" stroke-width="1.5"/>
</svg>
